<?xml version="1.0" encoding="UTF-8" standalone="no"?>
<!-- Created with Inkscape (http://www.inkscape.org/) -->

<svg
   width="173.19873mm"
   height="74.072998mm"
   viewBox="0 0 173.19873 74.072998"
   version="1.1"
   id="svg1"
   inkscape:version="1.4 (e7c3feb100, 2024-10-09)"
   sodipodi:docname="drawing.svg"
   xmlns:inkscape="http://www.inkscape.org/namespaces/inkscape"
   xmlns:sodipodi="http://sodipodi.sourceforge.net/DTD/sodipodi-0.dtd"
   xmlns="http://www.w3.org/2000/svg"
   xmlns:svg="http://www.w3.org/2000/svg">
  <sodipodi:namedview
     id="namedview1"
     pagecolor="#ffffff"
     bordercolor="#000000"
     borderopacity="0.25"
     inkscape:showpageshadow="2"
     inkscape:pageopacity="0.0"
     inkscape:pagecheckerboard="0"
     inkscape:deskcolor="#d1d1d1"
     inkscape:document-units="mm"
     inkscape:zoom="0.71891835"
     inkscape:cx="465.97781"
     inkscape:cy="733.74118"
     inkscape:window-width="1920"
     inkscape:window-height="1040"
     inkscape:window-x="0"
     inkscape:window-y="0"
     inkscape:window-maximized="1"
     inkscape:current-layer="layer1">
    <inkscape:page
       x="0"
       y="0"
       width="173.19873"
       height="74.072998"
       id="page2"
       margin="0"
       bleed="0" />
  </sodipodi:namedview>
  <defs
     id="defs1" />
  <g
     inkscape:label="Layer 1"
     inkscape:groupmode="layer"
     id="layer1"
     transform="translate(-13.121312,-9.4410162)">
    <g
       id="g31"
       inkscape:label="ilogs">
      <path
         d="m 23.756322,65.003517 h -9.36377 V 28.261574 l 2.32544,-0.341065 q 2.356445,-0.341064 7.03833,-0.341064 z m -4.681885,-43.65625 q -2.480469,0 -4.216797,-1.736328 -1.736328,-1.767334 -1.736328,-4.216797 0,-2.449463 1.736328,-4.185791 1.736328,-1.7673338 4.216797,-1.7673338 2.449463,0 4.185791,1.7673338 1.767334,1.736328 1.767334,4.185791 0,2.449463 -1.767334,4.216797 -1.736328,1.736328 -4.185791,1.736328 z"
         id="text31"
         style="font-size:63.5px;font-family:Oliciy;-inkscape-font-specification:Oliciy;opacity:0.988563;fill:#262626;fill-rule:evenodd;stroke-width:0.264583"
         aria-label="i" />
      <path
         d="M 65.211155,65.003517 H 37.150852 V 15.797218 l 2.32544,-0.341064 q 2.356445,-0.341065 7.03833,-0.341065 v 40.555664 h 18.696533 z"
         id="text30"
         style="font-size:63.5px;font-family:Oliciy;-inkscape-font-specification:Oliciy;opacity:0.988563;fill:#262626;fill-rule:evenodd;stroke-width:0.264583"
         aria-label="L" />
      <path
         d="m 88.434547,65.003517 q -5.208984,0 -8.929687,-2.046387 -3.689697,-2.046386 -5.922119,-5.364013 -3.348633,-4.960938 -3.348633,-11.286133 0,-6.29419 3.348633,-11.286133 2.232422,-3.348633 5.922119,-5.395019 3.720703,-2.046387 8.929687,-2.046387 5.177979,0 8.898682,2.046387 3.720701,2.046386 5.953121,5.395019 3.31763,4.929932 3.31763,11.286133 0,6.356201 -3.31763,11.286133 -2.23242,3.317627 -5.953121,5.364013 -3.720703,2.046387 -8.898682,2.046387 z m 0,-9.332764 q 2.976563,0 4.960938,-1.364257 1.984375,-1.364258 2.976562,-3.503662 0.992188,-2.170411 0.992188,-4.49585 0,-2.356445 -0.992188,-4.49585 -0.992187,-2.139404 -2.976562,-3.503662 -1.984375,-1.364258 -4.960938,-1.364258 -2.852539,0 -4.774902,1.364258 -1.891357,1.364258 -2.852539,3.503662 -0.961182,2.139405 -0.961182,4.49585 0,2.325439 0.961182,4.49585 0.961182,2.139404 2.852539,3.503662 1.922363,1.364257 4.774902,1.364257 z"
         id="text29"
         style="font-size:63.5px;font-family:Oliciy;-inkscape-font-specification:Oliciy;opacity:0.988563;fill:#262626;fill-rule:evenodd;stroke-width:0.264583"
         aria-label="o" />
      <path
         d="m 132.6179,55.453712 q 3.22461,0 6.23217,-0.868164 V 37.594337 q -3.00756,-0.868164 -6.23217,-0.868164 -3.10059,0 -5.14698,1.364258 -2.04638,1.364258 -3.06958,3.534668 -1.02319,2.139404 -1.02319,4.464844 0,2.356445 1.02319,4.49585 1.0232,2.139404 3.06958,3.503662 2.04639,1.364257 5.14698,1.364257 z m -3.65869,28.060303 q -8.71265,0 -15.06885,-6.387207 V 71.04966 q 7.81347,4.030761 15.06885,4.030761 6.20117,0 8.03051,-2.883544 1.86035,-2.85254 1.86035,-8.247559 -3.00756,0.868164 -6.23217,0.868164 -5.33301,0 -9.11573,-2.046387 -3.78271,-2.046386 -6.04614,-5.395019 -3.44165,-4.991944 -3.44165,-11.286133 0,-6.29419 3.44165,-11.286133 2.26343,-3.317627 6.04614,-5.364014 3.78272,-2.046386 9.11573,-2.046386 5.36401,0 11.34814,2.604492 2.48047,-2.945557 7.19336,-2.945557 1.02319,0 3.28662,0.341065 v 6.418213 q -3.10058,0 -4.68188,1.488281 -1.5503,1.457275 -1.5503,3.007568 v 25.641846 q 0,9.20874 -4.68188,14.386719 -4.68189,5.177978 -14.57275,5.177978 z"
         id="text28"
         style="font-size:63.5px;font-family:Oliciy;-inkscape-font-specification:Oliciy;opacity:0.988563;fill:#262626;fill-rule:evenodd;stroke-width:0.264583"
         aria-label="g" />
      <path
         d="m 172.08835,65.003517 q -6.63526,0 -11.81323,-5.426025 v -6.077149 q 4.74389,2.852539 11.50317,2.852539 2.85254,0 4.2478,-0.89917 1.42627,-0.899169 1.42627,-1.953369 0,-1.085205 -1.42627,-1.984375 -1.39526,-0.89917 -4.2478,-1.116211 -4.06177,-0.589111 -6.69727,-2.449463 -2.63549,-1.891357 -3.81372,-4.464843 -0.99218,-2.139405 -0.99218,-4.402832 0,-3.286621 1.98437,-6.108155 1.67432,-2.387451 4.80591,-3.875732 3.13159,-1.519287 7.72046,-1.519287 4.86792,0 8.52661,2.263428 v 8.619629 q -3.75171,-2.263428 -8.52661,-2.263428 -2.85254,0 -4.27881,0.89917 -1.39526,0.89917 -1.39526,1.984375 0,1.085205 1.39526,1.984375 1.42627,0.89917 4.27881,1.116211 4.06177,0.589111 6.69726,2.480468 2.6355,1.860352 3.84473,4.433838 0.99219,2.139405 0.99219,4.371826 0,4.247803 -3.59668,7.906495 -3.56568,3.627685 -10.63501,3.627685 z"
         id="text27"
         style="font-size:63.5px;font-family:Oliciy;-inkscape-font-specification:Oliciy;opacity:0.988563;fill:#262626;fill-rule:evenodd;stroke-width:0.264583"
         aria-label="s" />
    </g>
  </g>
</svg>
