<?xml version="1.0" encoding="UTF-8" standalone="no"?>
<!-- Created with Inkscape (http://www.inkscape.org/) -->

<svg
   width="198.62354mm"
   height="53.516106mm"
   viewBox="0 0 198.62354 53.516106"
   version="1.1"
   id="svg1"
   inkscape:version="1.4 (e7c3feb100, 2024-10-09)"
   sodipodi:docname="drawing.svg"
   xmlns:inkscape="http://www.inkscape.org/namespaces/inkscape"
   xmlns:sodipodi="http://sodipodi.sourceforge.net/DTD/sodipodi-0.dtd"
   xmlns="http://www.w3.org/2000/svg"
   xmlns:svg="http://www.w3.org/2000/svg">
  <sodipodi:namedview
     id="namedview1"
     pagecolor="#ffffff"
     bordercolor="#000000"
     borderopacity="0.25"
     inkscape:showpageshadow="2"
     inkscape:pageopacity="0.0"
     inkscape:pagecheckerboard="0"
     inkscape:deskcolor="#d1d1d1"
     inkscape:document-units="mm"
     inkscape:zoom="0.71891835"
     inkscape:cx="465.97781"
     inkscape:cy="733.74118"
     inkscape:window-width="1920"
     inkscape:window-height="1040"
     inkscape:window-x="0"
     inkscape:window-y="0"
     inkscape:window-maximized="1"
     inkscape:current-layer="layer1">
    <inkscape:page
       x="0"
       y="0"
       width="198.62354"
       height="53.516106"
       id="page2"
       margin="0"
       bleed="0" />
  </sodipodi:namedview>
  <defs
     id="defs1" />
  <g
     inkscape:label="Layer 1"
     inkscape:groupmode="layer"
     id="layer1"
     transform="translate(-11.5362,-112.25511)">
    <g
       id="g32"
       inkscape:label="luums">
      <path
         d="m 26.574041,165.77122 q -7.069336,0 -11.069091,-3.53466 -3.96875,-3.53467 -3.96875,-9.42578 v -39.84253 l 2.356445,-0.37207 q 2.325439,-0.34107 7.007324,-0.34107 v 40.55567 q 0,3.31762 2.015381,4.86792 2.015381,1.51928 7.317383,1.51928 v 6.07715 q -1.860352,0.49609 -3.658692,0.49609 z"
         id="text11"
         style="font-size:63.5px;font-family:Oliciy;-inkscape-font-specification:Oliciy;opacity:0.988563;fill:#262626;fill-rule:evenodd;stroke-width:0.264583"
         aria-label="l" />
      <path
         d="m 69.238104,165.49217 -0.806152,-0.031 q -4.154786,-0.062 -6.542237,-2.79053 -4.433838,2.60449 -9.921875,2.60449 -5.829101,0 -10.47998,-3.00757 -2.976563,-1.92236 -4.805908,-5.11596 -1.829346,-3.19361 -1.829346,-7.59644 V 137.0598 q 0,-2.60449 -3.131592,-3.10059 v -6.23217 q 1.860352,-0.37207 3.255615,-0.37207 3.59668,0 6.015137,1.73632 3.224609,2.35645 3.224609,7.96851 v 12.49536 q 0,2.07739 1.116211,3.47266 1.147217,1.36425 2.914551,2.04638 1.79834,0.68213 3.751709,0.68213 1.953369,0 3.751709,-0.68213 1.79834,-0.68213 2.914551,-2.04638 1.147217,-1.39527 1.147217,-3.47266 v -21.82812 h 9.363769 v 28.0603 q 0,2.23242 2.015381,2.91455 0.465088,0.15503 1.085205,0.18603 v 6.26319 q -1.891357,0.34106 -3.038574,0.34106 z"
         id="text10"
         style="font-size:63.5px;font-family:Oliciy;-inkscape-font-specification:Oliciy;opacity:0.988563;fill:#262626;fill-rule:evenodd;stroke-width:0.264583"
         aria-label="u" />
      <path
         d="m 114.87873,165.49217 -0.80615,-0.031 q -4.15479,-0.062 -6.54224,-2.79053 -4.43384,2.60449 -9.921873,2.60449 -5.829101,0 -10.47998,-3.00757 -2.976563,-1.92236 -4.805909,-5.11596 -1.829345,-3.19361 -1.829345,-7.59644 V 137.0598 q 0,-2.60449 -3.131592,-3.10059 v -6.23217 q 1.860351,-0.37207 3.255615,-0.37207 3.59668,0 6.015137,1.73632 3.224609,2.35645 3.224609,7.96851 v 12.49536 q 0,2.07739 1.116211,3.47266 1.147217,1.36425 2.914551,2.04638 1.79834,0.68213 3.751709,0.68213 1.953369,0 3.751707,-0.68213 1.79834,-0.68213 2.91455,-2.04638 1.14722,-1.39527 1.14722,-3.47266 v -21.82812 h 9.36377 v 28.0603 q 0,2.23242 2.01538,2.91455 0.46509,0.15503 1.0852,0.18603 v 6.26319 q -1.89135,0.34106 -3.03857,0.34106 z"
         id="text9"
         style="font-size:63.5px;font-family:Oliciy;-inkscape-font-specification:Oliciy;opacity:0.988563;fill:#262626;fill-rule:evenodd;stroke-width:0.264583"
         aria-label="u" />
      <path
         d="m 128.14924,165.6472 q -1.39527,0 -3.22461,-0.37207 v -6.23218 q 3.10059,-0.31006 3.10059,-3.10058 l 0.031,-12.49536 q 0,-4.65088 1.64331,-7.9375 1.64331,-3.28662 4.27881,-5.17798 3.50366,-2.51148 8.12354,-2.60449 5.302,0 9.33276,3.62768 3.93774,-3.62768 9.33276,-3.62768 4.49585,0 8.12354,2.60449 2.6355,1.89136 4.27881,5.17798 1.64331,3.28662 1.64331,7.9375 v 21.82812 h -9.36377 v -21.82812 q 0,-2.44947 -0.93018,-3.93775 -1.42627,-2.20141 -3.75171,-2.20141 -2.29443,0 -3.68969,2.20141 -0.96119,1.48828 -0.96119,3.93775 v 21.82812 h -9.36377 v -21.82812 q 0,-2.44947 -0.96118,-3.93775 -1.42627,-2.20141 -3.7207,-2.20141 -2.29443,0 -3.7207,2.20141 -0.96119,1.48828 -0.96119,3.93775 v 12.49536 q 0,5.61206 -3.2246,7.9685 -2.41846,1.73633 -6.01514,1.73633 z"
         id="text8"
         style="font-size:63.5px;font-family:Oliciy;-inkscape-font-specification:Oliciy;opacity:0.988563;fill:#262626;fill-rule:evenodd;stroke-width:0.264583"
         aria-label="m" />
      <path
         d="m 195.92804,165.27513 q -6.63525,0 -11.81323,-5.42602 v -6.07715 q 4.74389,2.85254 11.50317,2.85254 2.85254,0 4.2478,-0.89917 1.42627,-0.89917 1.42627,-1.95337 0,-1.08521 -1.42627,-1.98438 -1.39526,-0.89917 -4.2478,-1.11621 -4.06177,-0.58911 -6.69726,-2.44946 -2.6355,-1.89136 -3.81373,-4.46485 -0.99218,-2.1394 -0.99218,-4.40283 0,-3.28662 1.98437,-6.10815 1.67432,-2.38745 4.80591,-3.87573 3.13159,-1.51929 7.72046,-1.51929 4.86792,0 8.52661,2.26343 v 8.61963 q -3.75171,-2.26343 -8.52661,-2.26343 -2.85254,0 -4.27881,0.89917 -1.39526,0.89917 -1.39526,1.98437 0,1.08521 1.39526,1.98438 1.42627,0.89917 4.27881,1.11621 4.06177,0.58911 6.69726,2.48047 2.6355,1.86035 3.84473,4.43384 0.99219,2.1394 0.99219,4.37182 0,4.2478 -3.59668,7.9065 -3.56567,3.62768 -10.63501,3.62768 z"
         id="text7"
         style="font-size:63.5px;font-family:Oliciy;-inkscape-font-specification:Oliciy;opacity:0.988563;fill:#262626;fill-rule:evenodd;stroke-width:0.264583"
         aria-label="s" />
    </g>
  </g>
</svg>
