<?xml version="1.0" encoding="UTF-8" standalone="no"?>
<!-- Created with Inkscape (http://www.inkscape.org/) -->

<svg
   version="1.1"
   id="svg1"
   width="782.1413"
   height="240.00111"
   viewBox="0 0 782.1413 240.00112"
   sodipodi:docname="LOGO MUNYAAL PANTONE.ai"
   xmlns:inkscape="http://www.inkscape.org/namespaces/inkscape"
   xmlns:sodipodi="http://sodipodi.sourceforge.net/DTD/sodipodi-0.dtd"
   xmlns="http://www.w3.org/2000/svg"
   xmlns:svg="http://www.w3.org/2000/svg">
  <defs
     id="defs1">
    <clipPath
       clipPathUnits="userSpaceOnUse"
       id="clipPath34-7">
      <path
         d="M 0,810.709 H 626.457 V 0 H 0 Z"
         transform="translate(-233.79628,-358.64801)"
         id="path34-5" />
    </clipPath>
    <clipPath
       clipPathUnits="userSpaceOnUse"
       id="clipPath36-3">
      <path
         d="M 0,810.709 H 626.457 V 0 H 0 Z"
         transform="translate(-350.6684,-358.86191)"
         id="path36-5" />
    </clipPath>
    <clipPath
       clipPathUnits="userSpaceOnUse"
       id="clipPath38-6">
      <path
         d="M 0,810.709 H 626.457 V 0 H 0 Z"
         transform="translate(-359.78458,-358.64801)"
         id="path38-2" />
    </clipPath>
    <clipPath
       clipPathUnits="userSpaceOnUse"
       id="clipPath40-9">
      <path
         d="M 0,810.709 H 626.457 V 0 H 0 Z"
         transform="translate(-459.06388,-360.53481)"
         id="path40-1" />
    </clipPath>
    <clipPath
       clipPathUnits="userSpaceOnUse"
       id="clipPath42-2">
      <path
         d="M 0,810.709 H 626.457 V 0 H 0 Z"
         transform="translate(-486.84223,-372.11191)"
         id="path42-7" />
    </clipPath>
    <clipPath
       clipPathUnits="userSpaceOnUse"
       id="clipPath44-0">
      <path
         d="M 0,810.709 H 626.457 V 0 H 0 Z"
         transform="translate(-542.61958,-372.11191)"
         id="path44-9" />
    </clipPath>
    <clipPath
       clipPathUnits="userSpaceOnUse"
       id="clipPath46-3">
      <path
         d="M 0,810.709 H 626.457 V 0 H 0 Z"
         transform="translate(-594.98871,-358.47711)"
         id="path46-6" />
    </clipPath>
    <clipPath
       clipPathUnits="userSpaceOnUse"
       id="clipPath48-0">
      <path
         d="M 0,810.709 H 626.457 V 0 H 0 Z"
         transform="translate(-26.941801,-395.38051)"
         id="path48-6" />
    </clipPath>
    <clipPath
       clipPathUnits="userSpaceOnUse"
       id="clipPath50-2">
      <path
         d="M 0,810.709 H 626.457 V 0 H 0 Z"
         transform="translate(-35.843198,-362.24861)"
         id="path50-6" />
    </clipPath>
    <clipPath
       clipPathUnits="userSpaceOnUse"
       id="clipPath52-1">
      <path
         d="M 0,810.709 H 626.457 V 0 H 0 Z"
         transform="translate(-61.557002,-340.49081)"
         id="path52-8" />
    </clipPath>
    <clipPath
       clipPathUnits="userSpaceOnUse"
       id="clipPath54-7">
      <path
         d="M 0,810.709 H 626.457 V 0 H 0 Z"
         transform="translate(-94.1947,-334.55621)"
         id="path54-9" />
    </clipPath>
    <clipPath
       clipPathUnits="userSpaceOnUse"
       id="clipPath56-2">
      <path
         d="M 0,810.709 H 626.457 V 0 H 0 Z"
         transform="translate(-193.0961,-427.52351)"
         id="path56-0" />
    </clipPath>
    <clipPath
       clipPathUnits="userSpaceOnUse"
       id="clipPath58-2">
      <path
         d="M 0,810.709 H 626.457 V 0 H 0 Z"
         transform="translate(-184.19472,-460.16071)"
         id="path58-3" />
    </clipPath>
    <clipPath
       clipPathUnits="userSpaceOnUse"
       id="clipPath60-7">
      <path
         d="M 0,810.709 H 626.457 V 0 H 0 Z"
         transform="translate(-159.4691,-481.91901)"
         id="path60-5" />
    </clipPath>
    <clipPath
       clipPathUnits="userSpaceOnUse"
       id="clipPath62-9">
      <path
         d="M 0,810.709 H 626.457 V 0 H 0 Z"
         transform="translate(-126.83241,-487.85311)"
         id="path62-2" />
    </clipPath>
    <clipPath
       clipPathUnits="userSpaceOnUse"
       id="clipPath64-2">
      <path
         d="M 0,810.709 H 626.457 V 0 H 0 Z"
         transform="translate(-197.33052,-403.71931)"
         id="path64-8" />
    </clipPath>
  </defs>
  <sodipodi:namedview
     id="namedview1"
     pagecolor="#ffffff"
     bordercolor="#000000"
     borderopacity="0.25"
     inkscape:showpageshadow="2"
     inkscape:pageopacity="0.0"
     inkscape:pagecheckerboard="0"
     inkscape:deskcolor="#d1d1d1">
    <inkscape:page
       x="0"
       y="0"
       width="782.1413"
       height="240.00111"
       id="page2"
       margin="0"
       bleed="0" />
  </sodipodi:namedview>
  <g
     id="layer-MC0"
     inkscape:groupmode="layer"
     inkscape:label="Capa 1"
     transform="translate(-849.48516,-756.86045)">
    <path
       id="path33-7"
       d="m 0,0 c -1.286,0 -2.772,0.171 -4.458,0.515 v 8.618 c 2.858,0.286 4.286,1.715 4.286,4.288 l 0.044,17.28 c 0,4.288 0.758,7.946 2.272,10.978 1.516,3.029 3.489,5.417 5.918,7.16 3.23,2.316 6.974,3.516 11.233,3.602 4.89,0 9.19,-1.672 12.907,-5.017 3.631,3.345 7.934,5.017 12.907,5.017 4.146,0 7.89,-1.2 11.234,-3.602 2.431,-1.743 4.403,-4.131 5.918,-7.16 1.515,-3.032 2.273,-6.69 2.273,-10.978 V 0.515 H 51.583 v 30.186 c 0,2.259 -0.427,4.074 -1.285,5.445 -1.316,2.031 -3.045,3.045 -5.189,3.045 -2.115,0 -3.815,-1.014 -5.103,-3.045 C 39.12,34.775 38.679,32.96 38.679,30.701 V 0.515 H 25.728 v 30.186 c 0,2.259 -0.444,4.074 -1.33,5.445 -1.315,2.031 -3.03,3.045 -5.145,3.045 -2.114,0 -3.831,-1.014 -5.145,-3.045 -0.887,-1.371 -1.329,-3.186 -1.329,-5.445 V 13.421 C 12.779,8.247 11.292,4.573 8.319,2.401 6.089,0.8 3.316,0 0,0"
       style="fill:#1226aa;fill-opacity:1;fill-rule:nonzero;stroke:none"
       transform="matrix(1.3333333,0,0,-1.3333333,1143.2912,913.00793)"
       clip-path="url(#clipPath34-7)" />
    <path
       id="path35-3"
       d="m 0,0 -1.114,0.043 c -3.832,0.058 -6.847,1.343 -9.048,3.859 -4.09,-2.401 -8.662,-3.601 -13.722,-3.601 -5.375,0 -10.205,1.386 -14.494,4.159 -2.743,1.771 -4.958,4.131 -6.645,7.074 -1.688,2.945 -2.53,6.446 -2.53,10.507 V 39.32 c 0,2.402 -1.445,3.83 -4.331,4.288 v 8.62 c 1.716,0.342 3.217,0.514 4.502,0.514 3.316,0 6.09,-0.801 8.319,-2.401 2.972,-2.174 4.459,-5.847 4.459,-11.021 V 22.041 c 0,-1.916 0.521,-3.51 1.566,-4.782 1.043,-1.272 2.385,-2.223 4.031,-2.852 1.644,-0.628 3.364,-0.943 5.165,-0.943 1.801,0 3.53,0.315 5.189,0.943 1.659,0.629 3.009,1.58 4.051,2.852 1.043,1.272 1.567,2.866 1.567,4.782 V 52.228 H -0.086 V 13.422 c 0,-2.059 0.93,-3.402 2.787,-4.03 C 3.13,9.248 3.631,9.162 4.202,9.134 V 0.473 C 2.458,0.158 1.058,0 0,0"
       style="fill:#1226aa;fill-opacity:1;fill-rule:nonzero;stroke:none"
       transform="matrix(1.3333333,0,0,-1.3333333,1299.1207,912.72273)"
       clip-path="url(#clipPath36-3)" />
    <path
       id="path37-6"
       d="m 0,0 c -1.285,0 -2.771,0.171 -4.458,0.515 v 8.618 c 2.858,0.286 4.287,1.715 4.287,4.288 v 16.294 c 0,4.289 0.758,7.946 2.274,10.977 2.6,4.602 6.317,7.876 11.148,9.82 3.287,1.285 6.761,1.929 10.419,1.929 2.487,0 4.932,-0.315 7.333,-0.943 3.001,-0.83 5.731,-2.144 8.189,-3.945 2.458,-1.802 4.425,-4.111 5.897,-6.925 1.472,-2.815 2.209,-6.125 2.209,-9.927 V 0.515 H 34.347 v 30.186 c 0,1.887 -0.522,3.458 -1.564,4.717 -1.045,1.257 -2.395,2.2 -4.052,2.83 -1.659,0.628 -3.374,0.943 -5.147,0.943 -1.801,0 -3.53,-0.315 -5.188,-0.943 -1.657,-0.63 -3.009,-1.573 -4.052,-2.83 -1.043,-1.259 -1.565,-2.83 -1.565,-4.717 V 13.421 C 12.779,8.247 11.293,4.573 8.319,2.401 6.09,0.8 3.317,0 0,0"
       style="fill:#1226aa;fill-opacity:1;fill-rule:nonzero;stroke:none"
       transform="matrix(1.3333333,0,0,-1.3333333,1311.2756,913.00793)"
       clip-path="url(#clipPath38-6)" />
    <path
       id="path39-1"
       d="m 0,0 c 0,-8.49 -2.152,-15.122 -6.453,-19.896 -4.304,-4.774 -11.015,-7.162 -20.134,-7.162 -8.032,0 -14.979,2.946 -20.838,8.833 v 8.406 c 7.203,-3.716 14.151,-5.576 20.838,-5.576 5.719,0 9.428,1.317 11.128,3.946 1.7,2.631 2.552,6.447 2.552,11.449 v 0.729 c -3.459,-1.401 -7.09,-2.101 -10.893,-2.101 -2.485,0 -4.93,0.313 -7.33,0.943 -6.548,1.801 -11.251,5.417 -14.109,10.849 -1.457,2.829 -2.186,6.145 -2.186,9.948 v 17.236 c 0,0.886 -0.157,1.602 -0.471,2.145 -0.687,1.286 -1.973,2.016 -3.859,2.187 v 8.619 c 1.715,0.314 3.216,0.471 4.501,0.471 3.316,0 6.075,-0.801 8.275,-2.401 3.003,-2.116 4.502,-5.788 4.502,-11.021 V 20.368 c 0,-1.916 0.522,-3.51 1.567,-4.782 1.043,-1.272 2.385,-2.23 4.031,-2.872 1.644,-0.644 3.364,-0.965 5.165,-0.965 1.801,0 3.525,0.321 5.168,0.965 1.644,0.642 2.994,1.6 4.052,2.872 1.057,1.272 1.587,2.866 1.587,4.782 V 50.555 H 0 Z"
       style="fill:#1226aa;fill-opacity:1;fill-rule:nonzero;stroke:none"
       transform="matrix(1.3333333,0,0,-1.3333333,1443.648,910.4922)"
       clip-path="url(#clipPath40-9)" />
    <path
       id="path41-2"
       d="m 0,0 c 3.572,0 6.625,1.265 9.154,3.795 2.53,2.53 3.794,5.581 3.794,9.154 0,3.573 -1.264,6.618 -3.794,9.134 -2.529,2.515 -5.582,3.773 -9.154,3.773 -3.575,0 -6.619,-1.258 -9.134,-3.773 -2.514,-2.516 -3.773,-5.561 -3.773,-9.134 0,-3.573 1.259,-6.624 3.773,-9.154 C -6.619,1.265 -3.575,0 0,0 m 25.855,-13.422 -1.587,0.043 c -4.173,0.201 -7.289,1.915 -9.347,5.146 -4.487,-3.145 -9.463,-4.716 -14.921,-4.716 -4.745,0 -9.077,1.164 -12.993,3.494 -3.916,2.33 -7.04,5.453 -9.368,9.369 -2.33,3.916 -3.495,8.261 -3.495,13.035 0,4.745 1.165,9.076 3.495,12.992 2.328,3.916 5.452,7.039 9.368,9.37 3.916,2.33 8.248,3.495 12.993,3.495 4.715,0 9.033,-1.158 12.948,-3.474 v 3.474 c 4.316,0 7.562,-0.158 9.735,-0.473 l 3.216,-0.47 V 0 c 0,-0.857 0.155,-1.559 0.471,-2.101 0.543,-1.001 1.316,-1.645 2.317,-1.929 0.426,-0.144 0.942,-0.243 1.543,-0.301 v -8.618 c -1.831,-0.315 -3.288,-0.473 -4.375,-0.473"
       style="fill:#1226aa;fill-opacity:1;fill-rule:nonzero;stroke:none"
       transform="matrix(1.3333333,0,0,-1.3333333,1480.6858,895.05607)"
       clip-path="url(#clipPath42-2)" />
    <path
       id="path43-9"
       d="m 0,0 c 3.572,0 6.625,1.265 9.154,3.795 2.53,2.53 3.795,5.581 3.795,9.154 0,3.573 -1.265,6.618 -3.795,9.134 -2.529,2.515 -5.582,3.773 -9.154,3.773 -3.574,0 -6.619,-1.258 -9.134,-3.773 -2.514,-2.516 -3.773,-5.561 -3.773,-9.134 0,-3.573 1.259,-6.624 3.773,-9.154 C -6.619,1.265 -3.574,0 0,0 m 25.855,-13.422 -1.586,0.043 c -4.173,0.201 -7.29,1.915 -9.348,5.146 -4.487,-3.145 -9.462,-4.716 -14.921,-4.716 -4.745,0 -9.077,1.164 -12.993,3.494 -3.915,2.33 -7.039,5.453 -9.368,9.369 -2.33,3.916 -3.494,8.261 -3.494,13.035 0,4.745 1.164,9.076 3.494,12.992 2.329,3.916 5.453,7.039 9.368,9.37 3.916,2.33 8.248,3.495 12.993,3.495 4.716,0 9.033,-1.158 12.949,-3.474 v 3.474 c 4.316,0 7.561,-0.158 9.735,-0.473 l 3.215,-0.47 V 0 c 0,-0.857 0.156,-1.559 0.472,-2.101 0.542,-1.001 1.315,-1.645 2.316,-1.929 0.427,-0.144 0.942,-0.243 1.542,-0.301 v -8.618 c -1.83,-0.315 -3.287,-0.473 -4.374,-0.473"
       style="fill:#1226aa;fill-opacity:1;fill-rule:nonzero;stroke:none"
       transform="matrix(1.3333333,0,0,-1.3333333,1555.0556,895.05607)"
       clip-path="url(#clipPath44-0)" />
    <path
       id="path45-3"
       d="m 0,0 c -6.519,0 -11.615,1.629 -15.288,4.888 -3.673,3.258 -5.509,7.603 -5.509,13.035 v 55.1 l 3.258,0.514 c 2.144,0.314 5.373,0.472 9.69,0.472 V 17.923 c 0,-3.06 0.93,-5.296 2.787,-6.71 C -3.204,9.797 0.169,9.089 5.059,9.089 V 0.686 C 3.344,0.229 1.656,0 0,0"
       style="fill:#1226aa;fill-opacity:1;fill-rule:nonzero;stroke:none"
       transform="matrix(1.3333333,0,0,-1.3333333,1624.8811,913.2358)"
       clip-path="url(#clipPath46-3)" />
    <path
       id="path47-1"
       d="m 0,0 c 0,7.101 5.978,12.857 13.352,12.857 7.374,0 13.351,-5.756 13.351,-12.857 0,-7.101 -5.977,-12.857 -13.351,-12.857 C 5.978,-12.857 0,-7.101 0,0"
       style="fill:#0082cc;fill-opacity:1;fill-rule:nonzero;stroke:none"
       transform="matrix(1.3333333,0,0,-1.3333333,849.48517,897.95991)"
       clip-path="url(#clipPath48-0)" />
    <path
       id="path49-9"
       d="m 0,0 c 0,7.374 5.978,13.352 13.352,13.352 7.374,0 13.351,-5.978 13.351,-13.352 0,-7.374 -5.977,-13.352 -13.351,-13.352 C 5.978,-13.352 0,-7.374 0,0"
       style="fill:#0082cc;fill-opacity:1;fill-rule:nonzero;stroke:none"
       transform="matrix(1.3333333,0,0,-1.3333333,861.3537,942.13577)"
       clip-path="url(#clipPath50-2)" />
    <path
       id="path51-4"
       d="m 0,0 c 0,7.373 5.979,13.352 13.353,13.352 7.373,0 13.351,-5.979 13.351,-13.352 0,-7.374 -5.978,-13.353 -13.351,-13.353 C 5.979,-13.353 0,-7.374 0,0"
       style="fill:#0082cc;fill-opacity:1;fill-rule:nonzero;stroke:none"
       transform="matrix(1.3333333,0,0,-1.3333333,895.63877,971.14617)"
       clip-path="url(#clipPath52-1)" />
    <path
       id="path53-7"
       d="m 0,0 c 0,7.374 5.978,13.352 13.352,13.352 7.374,0 13.351,-5.978 13.351,-13.352 0,-7.374 -5.977,-13.352 -13.351,-13.352 C 5.978,-13.352 0,-7.374 0,0"
       style="fill:#0082cc;fill-opacity:1;fill-rule:nonzero;stroke:none"
       transform="matrix(1.3333333,0,0,-1.3333333,939.1557,979.05892)"
       clip-path="url(#clipPath54-7)" />
    <path
       id="path55-8"
       d="m 0,0 c 0,7.374 5.978,13.352 13.352,13.352 7.374,0 13.351,-5.978 13.351,-13.352 0,-7.374 -5.977,-13.352 -13.351,-13.352 C 5.978,-13.352 0,-7.374 0,0"
       style="fill:#0082cc;fill-opacity:1;fill-rule:nonzero;stroke:none"
       transform="matrix(1.3333333,0,0,-1.3333333,1071.0243,855.10257)"
       clip-path="url(#clipPath56-2)" />
    <path
       id="path57-4"
       d="m 0,0 c 0,7.374 5.978,13.352 13.352,13.352 7.374,0 13.351,-5.978 13.351,-13.352 0,-7.374 -5.977,-13.352 -13.351,-13.352 C 5.978,-13.352 0,-7.374 0,0"
       style="fill:#0082cc;fill-opacity:1;fill-rule:nonzero;stroke:none"
       transform="matrix(1.3333333,0,0,-1.3333333,1059.1558,811.58631)"
       clip-path="url(#clipPath58-2)" />
    <path
       id="path59-5"
       d="m 0,0 c 0,7.374 5.979,13.352 13.353,13.352 7.373,0 13.351,-5.978 13.351,-13.352 0,-7.374 -5.978,-13.352 -13.351,-13.352 C 5.979,-13.352 0,-7.374 0,0"
       style="fill:#0082cc;fill-opacity:1;fill-rule:nonzero;stroke:none"
       transform="matrix(1.3333333,0,0,-1.3333333,1026.1883,782.57524)"
       clip-path="url(#clipPath60-7)" />
    <path
       id="path61-0"
       d="m 0,0 c 0,7.374 5.978,13.352 13.352,13.352 7.374,0 13.351,-5.978 13.351,-13.352 0,-7.374 -5.977,-13.352 -13.351,-13.352 C 5.978,-13.352 0,-7.374 0,0"
       style="fill:#0082cc;fill-opacity:1;fill-rule:nonzero;stroke:none"
       transform="matrix(1.3333333,0,0,-1.3333333,982.67266,774.66311)"
       clip-path="url(#clipPath62-9)" />
    <path
       id="path63-3"
       d="m 0,0 v -17.499 c 0,-4.32 -0.852,-8.455 -2.529,-12.287 -1.706,-3.897 -4.026,-7.325 -6.898,-10.195 -2.871,-2.873 -6.3,-5.189 -10.204,-6.896 -7.734,-3.401 -16.781,-3.41 -24.563,0.002 -3.905,1.709 -7.333,4.027 -10.194,6.896 -2.865,2.862 -5.187,6.292 -6.898,10.193 -1.677,3.832 -2.528,7.967 -2.528,12.287 v 17.63 14.978 17.63 c 0,7.393 -1.423,14.386 -4.237,20.784 -2.791,6.349 -6.654,11.941 -11.476,16.62 -4.792,4.658 -10.389,8.389 -16.63,11.091 -12.863,5.578 -28.468,5.391 -41.017,0.009 -6.334,-2.713 -11.927,-6.466 -16.612,-11.156 -4.69,-4.687 -8.443,-10.276 -11.155,-16.611 -2.736,-6.378 -4.122,-13.355 -4.122,-20.737 V 15.24 h 20.718 v 17.499 c 0,4.329 0.852,8.462 2.53,12.287 1.707,3.895 4.025,7.325 6.893,10.197 2.868,2.866 6.297,5.187 10.201,6.896 7.643,3.349 16.907,3.359 24.564,-0.002 3.904,-1.711 7.336,-4.03 10.201,-6.894 2.868,-2.872 5.186,-6.302 6.893,-10.199 1.678,-3.83 2.53,-7.963 2.53,-12.285 V 15.109 0.131 -17.499 c 0,-7.39 1.427,-14.381 4.239,-20.779 2.787,-6.35 6.648,-11.943 11.473,-16.624 4.797,-4.657 10.388,-8.39 16.627,-11.092 6.326,-2.739 13.149,-4.129 20.283,-4.129 7.385,0 14.363,1.387 20.737,4.12 6.337,2.713 11.926,6.468 16.609,11.155 4.692,4.684 8.449,10.275 11.162,16.616 2.732,6.378 4.118,13.355 4.118,20.733 V 0 Z"
       style="fill:#1226aa;fill-opacity:1;fill-rule:nonzero;stroke:none"
       transform="matrix(1.3333333,0,0,-1.3333333,1076.6702,886.84151)"
       clip-path="url(#clipPath64-2)" />
  </g>
</svg>
